<svg viewBox="0 0 512 512" xmlns="http://www.w3.org/2000/svg"><style>@media (prefers-color-scheme:dark){.bg{fill:#111}.fg{fill:#f5f5f5}}</style><path class="bg" fill="#f5f5f5" d="M100 0h312c55.228 0 100 44.772 100 100v312c0 55.228-44.772 100-100 100H100C44.772 512 0 467.228 0 412V100C0 44.772 44.772 0 100 0Z"/><path class="fg" fill="#111" d="M149.433 415.082V308.637h12.207c13.834 69.336 46.631 104.004 98.388 104.004 23.275 0 41.301-6.633 54.077-19.898 12.777-13.265 19.166-28.117 19.166-44.555 0-16.602-5.616-30.518-16.846-41.749-11.231-11.067-31.738-22.949-61.524-35.644-26.53-11.393-46.549-21.362-60.058-29.907-13.509-8.545-24.048-19.654-31.616-33.326-7.569-13.671-11.353-28.238-11.353-43.701 0-23.6 8.179-43.253 24.536-58.96 16.358-15.706 37.069-23.56 62.134-23.56 13.997 0 27.181 2.28 39.551 6.837 12.37 4.557 25.065 13.997 38.086 28.32 7.487-8.952 11.718-18.636 12.695-29.053h10.742v86.67h-10.742c-6.185-25.228-17.131-45.084-32.837-59.57-15.706-14.486-33.895-21.729-54.565-21.729-19.694 0-34.139 5.33-43.335 15.992-9.196 10.66-13.794 22.338-13.794 35.034 0 15.299 5.778 28.239 17.334 38.818 11.393 10.742 31.982 22.787 61.767 36.133 28.483 12.695 49.195 22.908 62.134 30.64 12.94 7.731 23.316 18.432 31.128 32.104 7.813 13.672 11.719 29.46 11.719 47.363 0 28.321-9.44 51.351-28.321 69.092-18.88 17.741-44.108 26.612-75.683 26.612-36.296 0-66.569-13.916-90.82-41.749-5.372 7.65-9.359 18.392-11.963 32.227h-12.207Z"/></svg>