<svg xmlns="http://www.w3.org/2000/svg" viewBox="0 0 500 330">
    <defs>
        <style>
            .cls-1, .cls-3 {
                fill: #111;
            }
            .cls-1, .cls-2, .cls-3, .cls-4 {
                stroke: #ffffe0;
                stroke-linecap: round;
                stroke-width: 8px;
            }
            .cls-1, .cls-2 {
                stroke-linejoin: round;
            }
            .cls-2, .cls-4 {
                fill: none;
            }
            .cls-3, .cls-4 {
                stroke-miterlimit: 10;
            }
            .cls-5 {
                fill: #ffffe0;
            }
        </style>
    </defs>
    <g id="body">
        <path class="cls-1"
              d="M12.45,185.34,492.84,304a125.31,125.31,0,0,0-20.75-75.62q1-21.83,1.48-44.48.85-40.5,0-78.58l-50.41,19.27A386.73,386.73,0,0,0,264.51,59.3l-40-40L191.85,48.93c-25.77,13.37-47.26,25.7-63.75,35.58C94.43,104.69,77.21,115.12,58.41,132A274.41,274.41,0,0,0,12.45,185.34Z"/>
        <path class="cls-2"
              d="M191.85,167.54c1.71,4.45,4.45,9.29,8.9,10.38,7.49,1.85,13.95-8.38,19.27-5.93,4.66,2.14,2.08,11,7.42,14.83,4.16,2.94,10.72,1.06,16.31-1.48"/>
        <circle class="cls-5" cx="161.46" cy="157.91" r="14.09"/>
        <circle class="cls-5" cx="306.76" cy="202.39" r="14.09"/>
    </g>
    <g id="right">
        <path class="cls-3"
              d="M39.13,151.22a212.94,212.94,0,0,0-14.82,16.31C16.87,176.61,13.15,181.15,11,186.8c-.53,1.38-7.23,19.45,1.49,32.62,9.37,14.17,30.62,13.63,41.51,13.35,27.73-.71,48.21-15.52,57.83-23.73l56.34,14.83"/>
    </g>
    <g id="left">
        <path class="cls-4"
              d="M403.88,203.13c-7.65-14.38-21.83-23.61-37.07-23.73-10.75-.08-24.09,4.36-31.13,14.83-2.05,3.05-4.57,8.09-4.45,34.1.06,13.51.79,24.73,1.48,32.62"/>
        <circle class="cls-5" cx="381.64" cy="206.09" r="7.41"/>
        <circle class="cls-5" cx="360.88" cy="200.16" r="7.41"/>
        <circle class="cls-5" cx="349.02" cy="219.44" r="7.41"/>
        <ellipse class="cls-5" cx="368.3" cy="227.59" rx="10.38" ry="12.6"/>
    </g>
</svg>