<svg xmlns="http://www.w3.org/2000/svg" viewBox="0 0 500 330">
    <defs>
        <style>
            .cls-1, .cls-3 {
                fill: #111;
            }
            .cls-1, .cls-2, .cls-3 {
                stroke: #ffffe0;
                stroke-linecap: round;
                stroke-width: 8px;
            }
            .cls-1, .cls-2 {
                stroke-linejoin: round;
            }
            .cls-2 {
                fill: none;
            }
            .cls-3 {
                stroke-miterlimit: 10;
            }
            .cls-4 {
                fill: #ffffe0;
            }
        </style>
    </defs>
    <g id="body">
        <path class="cls-1"
              d="M12.45,185.34,492.84,304a125.31,125.31,0,0,0-20.75-75.62q1-21.83,1.48-44.48.85-40.5,0-78.58l-50.41,19.27A386.73,386.73,0,0,0,264.51,59.3l-40-40L191.85,48.93c-25.77,13.37-47.26,25.7-63.75,35.58C94.43,104.69,77.21,115.12,58.41,132A274.41,274.41,0,0,0,12.45,185.34Z"/>
        <path class="cls-2"
              d="M191.85,167.54c1.71,4.45,4.45,9.29,8.9,10.38,7.49,1.85,13.95-8.38,19.27-5.93,4.66,2.14,2.08,11,7.42,14.83,4.16,2.94,10.72,1.06,16.31-1.48"/>
        <circle class="cls-4" cx="161.46" cy="157.91" r="14.09"/>
        <circle class="cls-4" cx="306.76" cy="202.39" r="14.09"/>
    </g>
    <g id="left">
        <path class="cls-3"
              d="M323.81,235.75C296.44,257.52,282.16,285,289.71,301c12.18,25.77,76.89,12.54,80.07,11.86a141.14,141.14,0,0,0,54.86-25.21L488.4,301"/>
    </g>
    <g id="right">
        <path class="cls-3"
              d="M73.24,200.16,12.45,185.34a132.6,132.6,0,0,1-3-20.76C9,156.39,8.4,147.28,11,136.41,13.47,125.78,16,115,25.79,108.23c10.92-7.53,23.69-5,26.69-4.44,13.32,2.61,21.09,11.56,25.2,16.31a57.27,57.27,0,0,1,11.87,22.24"/>
        <circle class="cls-4" cx="28.75" cy="145.3" r="7.41"/>
        <circle class="cls-4" cx="39.13" cy="126.03" r="7.41"/>
        <circle class="cls-4" cx="59.89" cy="131.96" r="7.41"/>
        <ellipse cx="48.03" cy="154.94" rx="8.9" ry="12.6"/>
    </g>
</svg>